<?xml version="1.0" encoding="UTF-8" standalone="no"?>
<svg
    xmlns="http://www.w3.org/2000/svg"
    xmlns:xlink="http://www.w3.org/1999/xlink"
    version="1.1"
    viewBox="0 0 400 400"
    width="400"
    height="400"
    style="background: #fff;">
  <defs>
    <style>
      .bordered {
        stroke: #fff;
        stroke-width: 2;
        vector-effect: non-scaling-stroke;
        stroke-linejoin: round;
      }
    </style>
    <path
        id="e"
        class="bordered"
        d="m53.4,31.8h0.4a1.645,1.645 0 0 0 1.4,-1.7v-14.7a1.752,1.752 0 0 0 -1.7,-1.7h-52.6a0.9,0.9 0 0 0 -0.9,0.9v0 a 0.764,0.764 0 0 0 0.2,0.5l4.6,6.1 3.5,4.7v50.4a1.752,1.752 0 0 0 1.7,1.7h43.5a1.752,1.752 0 0 0 1.7,-1.7v-0.1 0 -14.8c0,-0.9 -0.9,-1.4 -1.7,-1.7h-18.4a1.752,1.752 0 0 1 -1.7,-1.7v-1.5a1.752,1.752 0 0 1 1.7,-1.7h13.3a1.752,1.752 0 0 0 1.7,-1.7v-14.6c0,-0.9 -0.8,-1.4 -1.7,-1.7h-13.6a1.807,1.807 0 0 1 -1.4,-1.6v-1.7a1.617,1.617 0 0 1 1.4,-1.6h18.6z" />
    <path
        id="n"
        class="bordered"
        d="m49.6,13.6a1.752,1.752 0 0 0 -1.7,1.7v0 22.5a0.645,0.645 0 0 1 -0.6,0.6c-0.2,0 -0.3,-0.1 -0.5,-0.2l-18.1,-23.2a3.676,3.676 0 0 0 -2.7,-1.3h-25.1a0.9,0.9 0 0 0 -0.9,0.9 0.764,0.764 0 0 0 0.2,0.5l7,9.4a5,5 0 0 1 1,3.1v48.7a1.752,1.752 0 0 0 1.7,1.7h16.1a1.752,1.752 0 0 0 1.7,-1.7v-22.6a0.645,0.645 0 0 1 0.6,-0.6c0.2,0 0.3,0.1 0.5,0.2l18.1,23.2a3.676,3.676 0 0 0 2.7,1.3h16.1a1.752,1.752 0 0 0 1.7,-1.7v0 -60.8a1.752,1.752 0 0 0 -1.7,-1.7z" />
  </defs>
  <image xlink:href="twitter_profile.svg" />
  <use xlink:href="#e" x="200" y="270" fill="#c4d700" />
  <use xlink:href="#n" x="265" y="270" fill="#a5308c" />
</svg>
