<?xml version="1.0" encoding="UTF-8" standalone="no"?>
<svg
    xmlns="http://www.w3.org/2000/svg"
    xmlns:xlink="http://www.w3.org/1999/xlink"
    version="1.1"
    viewBox="0 0 400 400"
    width="400"
    height="400"
    style="background: #fff;">
  <defs>
    <!-- This path is extracted from the HTML document at https://kemono-friends.jp/. The symbol is a copyrighted work of Kemono Friends Project. -->
    <path
       id="no"
       d="M45.47 13.38a1.39 1.39 0 0 1 .23-1.74C49.78 7.7 47.26.74 45.56.22S40.73 2 36.91 4.38a2.28 2.28 0 0 1-2.08.12A26.5 26.5 0 0 0 21 2.75a25.14 25.14 0 0 0-6.08 1.65 2.33 2.33 0 0 1-2.15-.09C9 1.86 5.78-.43 4.13.07 2.31.61-.5 8.49 4.81 12.26c0 0 0 .06.07 0l-.06.09A24.15 24.15 0 0 0 .57 25.11a21.54 21.54 0 0 0 .8 7.89 15 15 0 0 0 6.11 8.31c.29.19.59.38.9.55a16 16 0 0 0 16.87-1.16 14.26 14.26 0 0 0 5.59-8.31 15 15 0 0 0 .08-6.4 6.67 6.67 0 0 0-13.08 2.61 1.74 1.74 0 0 1-.62 1.73 2.26 2.26 0 0 1-2.5-.18C14 29.61 13.5 28 13.66 25.9v-.14a9.7 9.7 0 0 1 6.08-8.94 12.44 12.44 0 0 1 12.44 1.44c3.17 2.56 4.41 6.75 3.63 12.18a.29.29 0 0 1 0 .09 4.25 4.25 0 0 1-1 2l-.24.29-.2.23a6.67 6.67 0 0 0 10.29 8.55 15.14 15.14 0 0 0 3.9-6.68 29.23 29.23 0 0 0 .85-9.58 26 26 0 0 0-3.94-11.96z"
       stroke="#fff"
       stroke-width="2"
       vector-effect="non-scaling-stroke"
       stroke-linejoin="round" />
  </defs>
    <rect width="100%" height="100%" fill="#fff" />

    <g id="four-symbols">
      <use xlink:href="#no" fill="#00a0e9" transform="scale(2,2) rotate(90)" x="75" y="-200" />
      <use xlink:href="#no" fill="#c9caca" transform="scale(2,2) rotate(-90)" x="-125" />
      <use xlink:href="#no" fill="#e60012" transform="scale(2,2) rotate(180)" x="-125" y="-200" />
      <use xlink:href="#no" fill="#a5308c" transform="scale(2,2)" x="75" />
    </g>

    <g id="main">
      <use xlink:href="#no" fill="#13ae67" transform="scale(2,2) rotate(30)" x="150" y="-50"/>
      <use xlink:href="#no" fill="#f39800" transform="rotate(-45)" x="40" y="420" />
      <use xlink:href="#no" fill="#00ab8d" transform="scale(2,2) rotate(30)" x="180" y="40" />
      <use xlink:href="#no" fill="#187fc4" transform="rotate(135)" y="-170" x="40" />
      <use xlink:href="#no" fill="#f39800" transform="scale(2,2) rotate(60)" x="110" y="20" />
      <use xlink:href="#no" fill="#c4d700" transform="rotate(135)" x="110" y="-350" />
      <use xlink:href="#no" fill="#8fc31f" transform="scale(1.2,1.2) rotate(150)" x="-50" y="-110" />
      <use xlink:href="#no" fill="#e4007f" transform="scale(1.7,1.7) rotate(30)" y="-20" x="80" />
      <use xlink:href="#no" fill="#9fa0a0" transform="translate(240,70) rotate(-60)" />
    </g>

    <!-- Uppermost layer: #ea5520 is the theme color for the NEWS page of KF official website (https://kemono-friends.jp/news/) -->
    <use xlink:href="#no" fill="#ea5520" transform="scale(5,5) rotate(-20)" y="30" />
</svg>
